<svg width="24" height="24" viewBox="0 0 24 24" fill="none" xmlns="http://www.w3.org/2000/svg">
<path fill-rule="evenodd" clip-rule="evenodd" d="M12 24C18.6274 24 24 18.6274 24 12C24 5.37256 18.6274 0 12 0C5.37256 0 0 5.37256 0 12C0 18.6274 5.37256 24 12 24ZM13.8719 6.22571C14.1734 6.10571 14.4482 6.04199 14.8324 6.00293C14.8912 5.99707 15.1485 6.00085 15.3251 6.00793C15.3972 6.01074 15.4559 6.01416 15.4821 6.0177C15.6339 6.03833 15.7703 6.06409 15.9017 6.09753C16.0305 6.13025 16.1544 6.17041 16.2828 6.22034C16.6915 6.37927 17.0551 6.61377 17.3675 6.91968L17.4813 7.03113L17.5903 7.00708C18.2633 6.85815 18.8799 6.62317 19.4595 6.29456C19.4838 6.28088 19.5064 6.26868 19.524 6.25977C19.5444 6.24939 19.5592 6.24475 19.5592 6.24475C19.5616 6.24719 19.5516 6.28186 19.5371 6.32202C19.29 7.005 18.8465 7.57251 18.2525 7.96619L18.1436 8.03833C18.125 8.05078 18.1315 8.05005 18.3383 8.01917C18.9017 7.93506 19.4125 7.78711 19.9984 7.53833C20.0193 7.52942 19.8293 7.79651 19.691 7.97009C19.3372 8.41455 18.9357 8.80737 18.4921 9.14319L18.3768 9.23035L18.3733 9.6886C18.3697 10.1583 18.363 10.2898 18.3255 10.6302C18.2675 11.1571 18.1591 11.703 18.0092 12.2234C17.6573 13.4459 17.0541 14.6212 16.2788 15.5948C15.593 16.4561 14.7715 17.1796 13.8614 17.7239C12.6719 18.4352 11.333 18.8571 9.89307 18.9742C9.3576 19.0178 8.74451 19.0177 8.2326 18.974C7.02313 18.8706 5.85736 18.5375 4.78137 17.9878C4.54169 17.8654 4.2467 17.6978 4.04358 17.5686C4.02173 17.5547 4.00793 17.5447 4.00256 17.5391C3.99689 17.5331 4.00061 17.532 4.01416 17.536C4.01971 17.5377 4.05493 17.5419 4.10187 17.5465C4.12329 17.5487 4.14716 17.551 4.17181 17.5532C5.0379 17.6304 5.88019 17.5437 6.70776 17.2925C7.4198 17.0763 8.11328 16.725 8.72357 16.2711L8.85303 16.1749L8.7572 16.1692C8.30017 16.1417 7.89166 16.0382 7.49683 15.8497C6.76917 15.5023 6.18524 14.8882 5.8772 14.1464C5.84656 14.0725 5.7804 13.8922 5.78406 13.8923C5.78406 13.8923 5.84985 13.9017 5.92792 13.9132C6.23486 13.958 6.55676 13.9596 6.84955 13.9177C6.96307 13.9015 7.1076 13.8739 7.18927 13.8544C7.22839 13.8451 7.25311 13.8375 7.25311 13.8341C7.25311 13.8314 7.21429 13.8208 7.16693 13.8104C7.11957 13.8 7.02985 13.7762 6.96765 13.7573C5.74408 13.3871 4.84668 12.3439 4.66449 11.08C4.64471 10.9432 4.63013 10.76 4.63007 10.6494L4.63 10.5719L4.73303 10.6246C5.04645 10.7853 5.4035 10.8988 5.75238 10.9487C5.81549 10.9578 5.91687 10.9683 5.9964 10.975C6.06183 10.9805 6.11249 10.9834 6.11511 10.9807C6.1167 10.9791 6.09082 10.9592 6.05756 10.9365C6.02423 10.9137 5.95148 10.8588 5.89575 10.8145C5.07257 10.1584 4.61646 9.15051 4.66443 8.09338C4.68567 7.62573 4.802 7.18164 5.01215 6.76685C5.06543 6.66162 5.08398 6.61438 5.10602 6.61267C5.12543 6.61121 5.14758 6.64539 5.19867 6.70654C5.52399 7.09595 5.96161 7.53296 6.36041 7.86646C7.7475 9.02673 9.4552 9.76257 11.2509 9.97375C11.4959 10.0026 11.8772 10.0327 11.8772 10.0232C11.8772 10.0232 11.8739 10.0045 11.8689 9.97986L11.8599 9.93616C11.7948 9.62439 11.7778 9.24817 11.8141 8.92346C11.95 7.71094 12.739 6.67651 13.8719 6.22571Z" fill="#D3D3D3"/>
</svg>
