<svg width="32" height="29" viewBox="0 0 32 29" fill="none" xmlns="http://www.w3.org/2000/svg">
<path d="M1.2373 4.55762V24.9338C1.23714 25.3364 1.31785 25.7351 1.47483 26.1071C1.63181 26.4791 1.86197 26.8171 2.15218 27.1018C2.44239 27.3866 2.78696 27.6124 3.1662 27.7665C3.54543 27.9206 3.95191 27.9999 4.36241 27.9999H28.8298C29.3679 27.9996 29.8839 27.7898 30.2642 27.4165C30.6446 27.0432 30.8582 26.5371 30.8582 26.0094V9.36605C30.8582 8.83845 30.6445 8.33246 30.2641 7.95939C29.8837 7.58632 29.3678 7.37673 28.8298 7.37673H4.11058" stroke="#575757" stroke-miterlimit="10"/>
<path d="M4.86487 1H25.273C25.8416 1 26.3868 1.22151 26.7889 1.6158C27.1909 2.01009 27.4168 2.54486 27.4168 3.10247V7.37556H4.11057C3.34853 7.37556 2.61771 7.07867 2.07886 6.55021C1.54002 6.02175 1.2373 5.30501 1.2373 4.55766V4.55766C1.2373 3.61411 1.61949 2.7092 2.29979 2.04201C2.98009 1.37482 3.90278 1 4.86487 1V1Z" stroke="#575757" stroke-miterlimit="10"/>
<path d="M22.6503 13.9021H30.7887V21.644H22.6503C21.6033 21.644 20.5992 21.2361 19.8589 20.5101C19.1185 19.784 18.7026 18.7993 18.7026 17.7725C18.703 16.7459 19.119 15.7614 19.8593 15.0356C20.5996 14.3098 21.6035 13.9021 22.6503 13.9021V13.9021Z" stroke="#575757" stroke-miterlimit="10"/>
<path d="M22.494 19.1436C23.2655 19.1436 23.8909 18.5302 23.8909 17.7736C23.8909 17.0169 23.2655 16.4036 22.494 16.4036C21.7225 16.4036 21.097 17.0169 21.097 17.7736C21.097 18.5302 21.7225 19.1436 22.494 19.1436Z" stroke="#575757" stroke-miterlimit="10"/>
</svg>
