<svg width="25" height="24" viewBox="0 0 25 24" fill="none" xmlns="http://www.w3.org/2000/svg">
<path fill-rule="evenodd" clip-rule="evenodd" d="M10.8279 0.028617C8.02236 0.320951 5.50905 1.51785 3.52697 3.50559C1.67777 5.36003 0.52321 7.66095 0.124106 10.2873C0.00321417 11.0826 0.00321417 12.9195 0.124106 13.7149C0.52321 16.3412 1.67777 18.6421 3.52697 20.4966C5.37617 22.351 7.6706 23.5088 10.2895 23.9091C11.0826 24.0303 12.9143 24.0303 13.7074 23.9091C18.1183 23.235 21.7445 20.2778 23.2714 16.1095C23.6021 15.2069 23.9379 13.6499 23.9379 13.0191C23.9379 12.9012 23.9589 12.7918 23.9847 12.7758C24.0129 12.7583 24.0315 12.4301 24.0315 11.9486C24.0315 11.4284 24.0152 11.1605 23.9847 11.1794C23.956 11.1971 23.9379 11.1232 23.9379 10.9886C23.9379 10.3524 23.6035 8.79902 23.2714 7.89262C22.0485 4.5543 19.4242 1.92259 16.0953 0.696159C15.4852 0.471391 14.4175 0.200797 13.7308 0.0969348C13.1513 0.00927208 11.4075 -0.0317655 10.8279 0.028617ZM10.9684 1.62152C9.99227 2.01857 9.08151 3.00549 8.32806 4.48265C8.07757 4.97374 7.69092 5.90408 7.69092 6.01574C7.69092 6.05133 8.00813 6.09655 8.63905 6.15078C9.48824 6.22379 11.2538 6.32136 11.2849 6.29704C11.2916 6.29178 11.2916 5.20983 11.2849 3.89263L11.2727 1.49775L10.9684 1.62152ZM12.7008 3.90789V6.32535L13.1339 6.29995C13.3721 6.28601 13.8598 6.26229 14.2178 6.24722C14.8908 6.21896 16.3015 6.10542 16.3287 6.07734C16.361 6.04405 15.8921 4.91359 15.6537 4.45021C14.899 2.98281 13.9692 1.98856 12.9934 1.60532L12.7008 1.49043V3.90789ZM7.38302 2.46575C6.24073 3.02779 5.12428 3.84859 4.29718 4.73437C4.07384 4.9736 3.87223 5.20382 3.8492 5.24598C3.81305 5.31214 3.8867 5.34261 4.38684 5.46821C5.00015 5.62222 6.19348 5.86544 6.21652 5.84107C6.22401 5.83314 6.32735 5.56574 6.44604 5.24678C6.82225 4.23638 7.38045 3.15996 7.87422 2.49294C8.09531 2.19427 8.12664 2.14069 8.07996 2.14116C8.05912 2.14135 7.74551 2.28742 7.38302 2.46575ZM15.914 2.19948C15.9332 2.23178 16.0271 2.36382 16.1227 2.49294C16.4055 2.87495 16.8186 3.58307 17.0855 4.14336C17.3227 4.64122 17.7575 5.7443 17.7575 5.8483C17.7575 5.87511 17.7732 5.8969 17.7926 5.89662C17.9638 5.89446 19.8633 5.50005 20.1844 5.39999C20.2595 5.37656 20.1077 5.17517 19.6214 4.65295C18.8707 3.8468 17.7127 3.00525 16.6103 2.46467C15.9228 2.12754 15.8561 2.10214 15.914 2.19948ZM2.80827 6.75399C2.38749 7.47915 1.99588 8.45344 1.77015 9.33659C1.61962 9.92568 1.46371 10.8521 1.46371 11.1575V11.2968H3.40678H5.34986V10.9512C5.34986 10.2721 5.55016 8.62369 5.74629 7.6887C5.78577 7.50051 5.81807 7.3196 5.81807 7.28669C5.81807 7.24917 5.69128 7.20452 5.47862 7.16714C4.93526 7.07159 4.154 6.89016 3.53578 6.71596C3.22043 6.62713 2.95379 6.55444 2.94325 6.55444C2.93267 6.55444 2.87195 6.64422 2.80827 6.75399ZM20.8008 6.70474C20.3634 6.83217 19.2025 7.09544 18.6511 7.19221C18.3914 7.23781 18.1789 7.29115 18.1789 7.31082C18.1789 7.33045 18.2112 7.50051 18.2506 7.6887C18.4468 8.62369 18.6471 10.2721 18.6471 10.9512V11.2968H20.5969H22.5467L22.5159 10.9564C22.3899 9.56197 21.8416 7.82642 21.1874 6.75118L21.1052 6.61604L20.8008 6.70474ZM7.11661 8.08748C6.92015 9.09586 6.75651 10.4578 6.75496 11.0972L6.7545 11.2968H9.02532H11.2961V9.51253V7.72829L11.1206 7.72805C10.4964 7.72721 8.20576 7.56268 7.45541 7.46487L7.24326 7.43722L7.11661 8.08748ZM15.8144 7.56554C15.5054 7.59738 14.6784 7.65138 13.9767 7.68551L12.7008 7.74758V9.52215V11.2968H14.9716H17.2424V11.1115C17.2424 10.4748 17.0443 8.84949 16.86 7.97479L16.7586 7.49352L16.5674 7.50061C16.4622 7.50446 16.1234 7.53371 15.8144 7.56554ZM0.0314941 12.0011C0.0314941 12.453 0.0385173 12.6379 0.0471324 12.4119C0.0557007 12.186 0.0557007 11.8162 0.0471324 11.5902C0.0385173 11.3643 0.0314941 11.5491 0.0314941 12.0011ZM1.46371 12.8447C1.46371 13.4666 1.80405 14.9671 2.14135 15.8322C2.3755 16.4327 2.80761 17.3069 2.87026 17.3069C2.89231 17.3069 3.23275 17.2235 3.62675 17.1215C4.0208 17.0196 4.62764 16.8814 4.97529 16.8144C5.32294 16.7474 5.65719 16.6818 5.71811 16.6688C5.81512 16.648 5.8251 16.6263 5.79855 16.4946C5.56126 15.3192 5.41883 14.2599 5.36629 13.2801L5.33549 12.7054H3.39957H1.46371V12.8447ZM6.77542 13.2101C6.82538 13.9951 6.93073 14.8479 7.0652 15.5559C7.13286 15.9121 7.19855 16.263 7.21124 16.3357C7.23263 16.4585 7.24635 16.4661 7.40404 16.4414C7.79163 16.3806 9.27001 16.2733 10.0554 16.2488C10.5189 16.2343 10.9877 16.2117 11.0972 16.1984L11.2961 16.1742V14.4398V12.7054H9.01975H6.7433L6.77542 13.2101ZM12.7119 14.4544L12.7242 16.2034L13.6372 16.2373C14.1394 16.256 14.9084 16.3045 15.3462 16.3452C15.784 16.386 16.2802 16.4315 16.449 16.4465L16.7558 16.4738L16.882 15.8358C17.0306 15.085 17.1749 13.9751 17.2203 13.2336L17.2527 12.7054H14.9761H12.6997L12.7119 14.4544ZM18.6296 13.3275C18.5908 14.0889 18.4597 15.129 18.2928 16C18.2238 16.3596 18.1765 16.6628 18.1876 16.6739C18.1986 16.685 18.5646 16.7679 19.0009 16.8582C19.6874 17.0003 20.8109 17.2854 21.0385 17.3754C21.0953 17.3978 21.1728 17.2876 21.3742 16.8979C21.998 15.691 22.3992 14.3375 22.5159 13.0458L22.5467 12.7054H20.604H18.6613L18.6296 13.3275ZM9.58717 17.6887C9.2009 17.7103 8.60739 17.7547 8.26827 17.7874L7.65173 17.8468L7.85194 18.3692C7.96206 18.6564 8.2023 19.1815 8.38579 19.5359C9.14907 21.01 10.1073 22 11.116 22.3569L11.2961 22.4206V20.0281V17.6355L10.7928 17.6426C10.516 17.6464 9.97345 17.6672 9.58717 17.6887ZM12.7008 20.0227V22.4206L12.8809 22.3569C13.8898 21.9999 14.8478 21.01 15.6114 19.5354C15.795 19.1807 16.0344 18.6626 16.1432 18.384L16.3411 17.8775L16.1246 17.8509C15.5797 17.7838 14.2426 17.6842 13.5084 17.6559L12.7008 17.6248V20.0227ZM5.42009 18.1746C4.72756 18.3074 3.79292 18.5277 3.74806 18.5687C3.72976 18.5854 3.88937 18.7996 4.10273 19.0447C4.91939 19.9826 6.07709 20.884 7.17916 21.4399C7.74743 21.7266 8.21798 21.919 8.17383 21.8467C8.1551 21.8161 8.05167 21.6745 7.94394 21.5322C7.37127 20.7756 6.6483 19.3462 6.31161 18.3046C6.21704 18.012 6.24578 18.0161 5.42009 18.1746ZM17.6859 18.3028C17.3485 19.3464 16.6261 20.7751 16.053 21.5322C15.9453 21.6745 15.8418 21.8161 15.8231 21.8467C15.7789 21.919 16.2495 21.7266 16.8178 21.4399C17.9078 20.8901 19.0783 19.9819 19.8724 19.0697C20.0738 18.8384 20.2228 18.6353 20.2036 18.6182C20.1542 18.5742 19.0482 18.3102 18.4364 18.1963C18.1531 18.1436 17.8864 18.0901 17.8438 18.0775C17.7843 18.0599 17.7474 18.1127 17.6859 18.3028Z" fill="#D3D3D3"/>
</svg>
