<svg width="12" height="12" viewBox="0 0 12 12" fill="none" xmlns="http://www.w3.org/2000/svg">
<path d="M7.72245 2.09863H2.14391C1.62046 2.09863 1.19531 2.52378 1.19531 3.04723V11.0513C1.19531 11.5748 1.62046 11.9999 2.14391 11.9999H7.72245C8.2459 11.9999 8.67105 11.5748 8.67105 11.0513V3.04723C8.66859 2.52378 8.24344 2.09863 7.72245 2.09863ZM8.00506 11.0489C8.00506 11.2061 7.87727 11.3339 7.71999 11.3339H2.14145C1.98417 11.3339 1.85638 11.2061 1.85638 11.0489V3.04723C1.85638 2.88995 1.98417 2.76216 2.14145 2.76216H7.71999C7.87727 2.76216 8.00506 2.88995 8.00506 3.04723V11.0489Z" fill="#343434"/>
<path d="M9.85526 0H4.27672C3.75327 0 3.32812 0.425148 3.32812 0.948597C3.32812 1.13291 3.47558 1.28036 3.65989 1.28036C3.8442 1.28036 3.99165 1.13291 3.99165 0.948597C3.99165 0.791317 4.11944 0.663527 4.27672 0.663527H9.85526C10.0125 0.663527 10.1403 0.791317 10.1403 0.948597V8.95269C10.1403 9.10997 10.0125 9.23776 9.85526 9.23776C9.67095 9.23776 9.5235 9.38521 9.5235 9.56953C9.5235 9.75384 9.67095 9.90129 9.85526 9.90129C10.3787 9.90129 10.8039 9.47614 10.8039 8.95269V0.948597C10.8039 0.425148 10.3787 0 9.85526 0Z" fill="#343434"/>
</svg>
