<svg width="24" height="24" viewBox="0 0 24 24" fill="none" xmlns="http://www.w3.org/2000/svg">
<path fill-rule="evenodd" clip-rule="evenodd" d="M11.3633 0.0066285C10.6146 0.0624317 10.2237 0.111503 9.67659 0.218348C5.97766 0.940881 2.82966 3.37403 1.18268 6.78347C0.545636 8.10222 0.195044 9.37817 0.0321872 10.9705C-0.0126266 11.4088 -0.00510685 12.6934 0.0450715 13.1637C0.204766 14.661 0.559692 15.9265 1.1832 17.2216C2.19004 19.3131 3.82084 21.1009 5.81785 22.3023C7.35328 23.226 8.99244 23.7653 10.8479 23.9571C11.401 24.0143 12.5671 24.0143 13.1202 23.9571C15.3888 23.7226 17.4164 22.935 19.1907 21.5993C20.0437 20.9571 20.9379 20.0594 21.5886 19.192C22.7659 17.6226 23.5616 15.7106 23.8482 13.7618C23.8988 13.4176 23.9547 12.8246 23.9547 12.6312C23.9547 12.529 23.9634 12.4743 23.9781 12.4834C23.9935 12.4929 24.001 12.3179 23.9999 11.9746C23.9989 11.6605 23.9902 11.4701 23.9781 11.4982C23.9642 11.5306 23.9575 11.4933 23.9563 11.3784C23.9543 11.175 23.8975 10.5782 23.8482 10.2433C23.5818 8.43193 22.8973 6.6944 21.8559 5.18591C21.4265 4.56387 21.0608 4.12523 20.4926 3.55066C19.8835 2.93464 19.339 2.48353 18.6487 2.02298C16.9676 0.90131 15.1813 0.259936 13.1553 0.0505627C12.8157 0.0154716 11.6336 -0.0135207 11.3633 0.0066285ZM9.60631 5.89594C9.58054 5.90148 9.38025 5.94375 9.16122 5.98986C8.32522 6.16583 7.29535 6.49981 6.60447 6.81901C6.4247 6.90204 6.40701 6.91708 6.29742 7.07987C6.23347 7.17487 6.08629 7.41093 5.97038 7.60445C4.85294 9.4699 4.23906 11.2958 4.0264 13.3865C3.9773 13.869 3.96905 15.3531 4.01293 15.8022C4.04418 16.1217 3.98669 16.0569 4.60488 16.4697C5.45112 17.0348 6.35662 17.5036 7.09974 17.7612C7.20281 17.7969 7.44886 17.8827 7.6465 17.952C7.84414 18.0212 8.03038 18.0778 8.06037 18.0778C8.10185 18.0778 8.14507 18.0344 8.24133 17.896C8.43476 17.618 8.66707 17.2388 8.8121 16.9645L8.94303 16.7168L8.853 16.6795C8.07346 16.3573 7.61328 16.103 7.6688 16.0252C7.70469 15.9748 7.90606 15.826 7.93822 15.826C7.95699 15.826 8.09279 15.8777 8.24 15.941C9.01043 16.272 10.0171 16.5415 10.8822 16.6483C11.1949 16.687 12.5383 16.6888 12.8742 16.6511C13.9177 16.5339 15.0307 16.2369 15.8259 15.8635C15.8968 15.8302 15.9811 15.8032 16.0133 15.8035C16.0665 15.804 16.2007 15.8963 16.2007 15.9325C16.2007 15.9407 16.2235 15.966 16.2515 15.9886C16.2794 16.0113 16.2964 16.0446 16.2892 16.0628C16.271 16.1089 15.7124 16.3968 15.3339 16.5551C15.1 16.653 15.016 16.6989 15.0112 16.7317C14.9999 16.8091 15.7204 18.0038 15.8367 18.1005C15.8645 18.1236 15.9359 18.1077 16.2058 18.018C17.307 17.6524 18.4371 17.0939 19.4324 16.4235C19.9073 16.1035 19.9016 16.1085 19.9252 16.0007C19.9973 15.6714 20.0113 14.2017 19.949 13.4921C19.7512 11.2348 19.0105 9.13494 17.7129 7.15228C17.5319 6.87579 17.5555 6.89179 16.9909 6.66356C16.3101 6.38834 15.6241 6.17315 14.9357 6.01881C14.4599 5.91213 14.2823 5.88088 14.2412 5.89667C14.2208 5.90453 14.1157 6.09089 14.0077 6.31084C13.8997 6.5308 13.8034 6.71784 13.7937 6.72649C13.784 6.73517 13.6338 6.72328 13.4599 6.70008C12.5586 6.57996 11.44 6.57614 10.556 6.69018C10.1291 6.74528 10.1911 6.78234 9.9763 6.34328C9.87363 6.13344 9.77135 5.94344 9.74902 5.92106C9.70815 5.88016 9.69238 5.87739 9.60631 5.89594ZM8.91595 11.0548C8.47285 11.2059 8.1331 11.5649 7.96352 12.0612C7.90517 12.2319 7.89929 12.2806 7.89807 12.6007C7.8966 12.994 7.9188 13.0995 8.06793 13.4081C8.20778 13.6975 8.56524 14.0122 8.89147 14.1331C9.09588 14.209 9.43085 14.2282 9.63501 14.1758C10.1406 14.0461 10.5575 13.6106 10.6963 13.0673C10.7526 12.8466 10.7578 12.4438 10.7074 12.2019C10.6619 11.9834 10.4926 11.647 10.3451 11.482C9.98082 11.0744 9.38269 10.8956 8.91595 11.0548ZM14.2171 11.0613C13.7826 11.2128 13.4335 11.5855 13.281 12.0607C13.1219 12.557 13.2199 13.242 13.4975 13.573C13.8767 14.0251 14.2092 14.2075 14.6546 14.2075C15.2603 14.2075 15.8157 13.7604 16.0004 13.1243C16.1181 12.719 16.0706 12.142 15.8888 11.7684C15.8285 11.6445 15.6606 11.4302 15.5448 11.3293C15.1785 11.0103 14.6623 10.9061 14.2171 11.0613ZM0 12.0026C0 12.2928 0.00334991 12.4116 0.00747287 12.2664C0.0115724 12.1213 0.0115724 11.8838 0.00747287 11.7387C0.00334991 11.5935 0 11.7123 0 12.0026Z" fill="#D3D3D3"/>
</svg>
