<svg width="22" height="6" viewBox="0 0 22 6" fill="none" xmlns="http://www.w3.org/2000/svg">
<path d="M2.35705 5.18547C3.57359 5.18547 4.55979 4.20719 4.55979 3.00042C4.55979 1.79365 3.57359 0.815369 2.35705 0.815369C1.1405 0.815369 0.154297 1.79365 0.154297 3.00042C0.154297 4.20719 1.1405 5.18547 2.35705 5.18547Z" fill="#8C8C8C"/>
<path d="M11.0773 5.18547C12.2938 5.18547 13.28 4.20719 13.28 3.00042C13.28 1.79365 12.2938 0.815369 11.0773 0.815369C9.86072 0.815369 8.87451 1.79365 8.87451 3.00042C8.87451 4.20719 9.86072 5.18547 11.0773 5.18547Z" fill="#8C8C8C"/>
<path d="M19.7977 5.18547C21.0143 5.18547 22.0005 4.20719 22.0005 3.00042C22.0005 1.79365 21.0143 0.815369 19.7977 0.815369C18.5812 0.815369 17.595 1.79365 17.595 3.00042C17.595 4.20719 18.5812 5.18547 19.7977 5.18547Z" fill="#8C8C8C"/>
</svg>
