<svg width="13" height="11" viewBox="0 0 13 11" fill="none" xmlns="http://www.w3.org/2000/svg">
<path d="M11.9867 3.66248C11.9867 4.21933 11.8073 4.74969 11.4749 5.19445L10.7036 5.95865L10.1258 6.53104L6.50005 9.98192L2.60669 6.27631L2.289 5.95865L1.52516 5.19445C1.19275 4.74969 1.01343 4.21933 1.01343 3.66248C1.01343 2.95458 1.30301 2.28947 1.82866 1.78891C2.35457 1.28836 3.05365 1.01274 3.79715 1.01274C4.54065 1.01274 5.24 1.28836 5.76564 1.78891L6.50005 2.60355L7.23445 1.78891C7.76009 1.28836 8.45917 1.01274 9.20294 1.01274C9.94671 1.01274 10.6455 1.28836 11.1714 1.78891C11.6971 2.28921 11.9867 2.95458 11.9867 3.66248Z" stroke="#D2D2D2" stroke-miterlimit="10"/>
</svg>
