<svg width="16" height="16" viewBox="0 0 16 16" fill="none" xmlns="http://www.w3.org/2000/svg">
<path d="M2.32222 3.00095L1.40378 6.70929C1.32535 7.02562 1.41849 7.35983 1.64889 7.59024L8.77202 14.7134C9.13507 15.0764 9.72391 15.0764 10.087 14.7134L12.4005 12.3998L14.714 10.0863C15.0771 9.72325 15.0771 9.13442 14.714 8.77137L7.59031 1.64853C7.35991 1.41812 7.0257 1.32527 6.70936 1.40342L3.00102 2.32214C2.66623 2.40519 2.40498 2.66645 2.32222 3.00095Z" stroke="#8C8C8C" stroke-miterlimit="10"/>
<path d="M5.49776 6.99551C6.32494 6.99551 6.99551 6.32494 6.99551 5.49776C6.99551 4.67057 6.32494 4 5.49776 4C4.67057 4 4 4.67057 4 5.49776C4 6.32494 4.67057 6.99551 5.49776 6.99551Z" stroke="#8C8C8C" stroke-miterlimit="10"/>
<path d="M1 1L4.5 4.5" stroke="#8C8C8C" stroke-miterlimit="10"/>
</svg>
