<svg width="21" height="24" viewBox="0 0 21 24" fill="none" xmlns="http://www.w3.org/2000/svg">
<g clip-path="url(#clip0_37_1035)">
<path d="M16.8942 22.8861C18.5389 22.8861 19.8722 21.5544 19.8722 19.9117C19.8722 18.2691 18.5389 16.9374 16.8942 16.9374C15.2495 16.9374 13.9163 18.2691 13.9163 19.9117C13.9163 21.5544 15.2495 22.8861 16.8942 22.8861Z" stroke="#8C8C8C" stroke-miterlimit="10"/>
<path d="M4.10589 14.9736C5.75057 14.9736 7.08385 13.642 7.08385 11.9993C7.08385 10.3567 5.75057 9.02501 4.10589 9.02501C2.46121 9.02501 1.12793 10.3567 1.12793 11.9993C1.12793 13.642 2.46121 14.9736 4.10589 14.9736Z" stroke="#8C8C8C" stroke-miterlimit="10"/>
<path d="M16.8942 7.06256C18.5389 7.06256 19.8722 5.73092 19.8722 4.08826C19.8722 2.44559 18.5389 1.11395 16.8942 1.11395C15.2495 1.11395 13.9163 2.44559 13.9163 4.08826C13.9163 5.73092 15.2495 7.06256 16.8942 7.06256Z" stroke="#8C8C8C" stroke-miterlimit="10"/>
<path d="M14.3547 5.64226L6.60791 10.3854" stroke="#8C8C8C" stroke-miterlimit="10"/>
<path d="M14.3547 18.3577L6.60791 13.6132" stroke="#8C8C8C" stroke-miterlimit="10"/>
</g>
<defs>
<clipPath id="clip0_37_1035">
<rect width="21" height="24" fill="white"/>
</clipPath>
</defs>
</svg>
