<svg width="16" height="16" viewBox="0 0 16 16" fill="none" xmlns="http://www.w3.org/2000/svg">
<path d="M7.18617 1.4939C7.61225 0.991046 8.38783 0.991046 8.81391 1.4939L9.32729 2.09989C9.58857 2.40825 10.0016 2.54247 10.3943 2.44657L11.1658 2.2581C11.8061 2.1017 12.4335 2.55758 12.4827 3.21482L12.5418 4.00685C12.5719 4.40988 12.8272 4.76129 13.2012 4.91446L13.9362 5.21549C14.5461 5.46528 14.7858 6.20293 14.4392 6.76351L14.0215 7.43904C13.809 7.78282 13.809 8.21717 14.0215 8.56096L14.4392 9.23647C14.7858 9.79706 14.5461 10.5347 13.9362 10.7845L13.2012 11.0855C12.8272 11.2387 12.5719 11.5901 12.5418 11.9931L12.4827 12.7852C12.4335 13.4424 11.8061 13.8983 11.1658 13.7419L10.3943 13.5534C10.0016 13.4575 9.58857 13.5917 9.32729 13.9001L8.81391 14.5061C8.38783 15.009 7.61225 15.009 7.18617 14.5061L6.67279 13.9001C6.41151 13.5917 5.99844 13.4575 5.6058 13.5534L4.83427 13.7419C4.19402 13.8983 3.56655 13.4424 3.51744 12.7852L3.45828 11.9931C3.42816 11.5901 3.17286 11.2387 2.79885 11.0855L2.06388 10.7845C1.45397 10.5347 1.2143 9.79706 1.56089 9.23647L1.97856 8.56096C2.1911 8.21717 2.1911 7.78282 1.97856 7.43904L1.56089 6.76351C1.2143 6.20293 1.45397 5.46528 2.06388 5.21549L2.79885 4.91446C3.17286 4.76129 3.42816 4.40988 3.45828 4.00685L3.51744 3.21482C3.56655 2.55758 4.19402 2.1017 4.83427 2.2581L5.6058 2.44657C5.99844 2.54247 6.41151 2.40825 6.67279 2.09989L7.18617 1.4939Z" fill="#FF6B43"/>
<path d="M7.19992 9.4L5.79992 8L5.33325 8.46667L7.19992 10.3333L11.1999 6.33334L10.7333 5.86667L7.19992 9.4Z" fill="white" stroke="white"/>
</svg>
